<?xml version="1.0" encoding="UTF-8"?>
<svg width="37px" height="37px" viewBox="0 0 37 37" version="1.1" xmlns="http://www.w3.org/2000/svg" xmlns:xlink="http://www.w3.org/1999/xlink">
    <!-- Generator: Sketch 53.1 (72631) - https://sketchapp.com -->
    <title>Group 18</title>
    <desc>Created with Sketch.</desc>
    <g id="Page-1" stroke="none" stroke-width="1" fill="none" fill-rule="evenodd">
        <g id="Desktop-HD-Copy-2" transform="translate(-1304.000000, -5809.000000)">
            <g id="Group-18" transform="translate(1304.000000, 5809.000000)">
                <circle id="Oval" fill="#2568B2" cx="18.5" cy="18.5" r="18.5"></circle>
                <g id="linkedin-logo" transform="translate(9.000000, 9.000000)" fill="#FFFFFF" fill-rule="nonzero">
                    <path d="M19,11.0357857 L19,18 L14.9276848,18 L14.9276848,11.5022068 C14.9276848,9.86990818 14.3386683,8.75592819 12.8646252,8.75592819 C11.7393802,8.75592819 11.0697461,9.50666907 10.7751496,10.2328845 C10.6677183,10.4925037 10.6400654,10.8538596 10.6400654,11.2172739 L10.6400654,18 L6.56638078,18 C6.56638078,18 6.62124492,6.99487107 6.56638078,5.85465764 L10.6396678,5.85465764 L10.6396678,7.57621131 C10.6314073,7.58908716 10.620673,7.6029703 10.6128984,7.61545199 L10.6396678,7.61545199 L10.6396678,7.57621131 C11.1808438,6.74983577 12.1473274,5.56933056 14.3106178,5.56933056 C16.9907886,5.56928677 19,7.30520533 19,11.0357857 Z M2.30513325,0 C0.911531049,0 0,0.906258364 0,2.09801899 C0,3.26380894 0.885159154,4.19757081 2.25106425,4.19757081 L2.27827545,4.19757081 C3.69886798,4.19757081 4.58234852,3.26398412 4.58234852,2.09801899 C4.55557906,0.906258364 3.69886798,0 2.30513325,0 Z M0.241941146,18 L4.31407966,18 L4.31407966,5.85465764 L0.241941146,5.85465764 L0.241941146,18 Z" id="LinkedIn"></path>
                </g>
            </g>
        </g>
    </g>
</svg>