<?xml version="1.0" encoding="UTF-8"?>
<svg width="195px" height="68px" viewBox="0 0 195 68" version="1.1" xmlns="http://www.w3.org/2000/svg" xmlns:xlink="http://www.w3.org/1999/xlink">
    <!-- Generator: Sketch 53.1 (72631) - https://sketchapp.com -->
    <title>logo</title>
    <desc>Created with Sketch.</desc>
    <g id="Page-1" stroke="none" stroke-width="1" fill="none" fill-rule="evenodd">
        <g id="Desktop-HD-Copy-2" transform="translate(-101.000000, -52.000000)">
            <g id="logo" transform="translate(101.000000, 52.000000)">
                <g id="Group" fill-rule="nonzero">
                    <path d="M0.375,32.425 L0.625,32.755 C0.625,32.585 0.625,32.415 0.625,32.245 L0.375,32.425 Z" id="Path" fill="#2567B1"></path>
                    <path d="M10.0576761,14.1226662 L8,14.8162587 L8.75919349,16.6961333 C9.17959461,17.7302684 10.4373294,18.2579523 11.5698749,17.8753576 C12.7024204,17.492763 13.2818125,16.3444638 12.8646524,15.3092339 C12.4474922,14.274004 11.1914154,13.7430341 10.0576761,14.1226662 L10.0576761,14.1226662 Z" id="Path" fill="#C3996C"></path>
                    <path d="M11.1397739,47.0384868 C10.5409121,46.9346896 9.91915755,47.0428246 9.41233972,47.3389208 C8.90552189,47.635017 8.55551148,48.0946124 8.43989826,48.6158246 L8,50.580327 L10.2599773,50.9627119 C11.5066099,51.1738973 12.7141545,50.4666291 12.9571036,49.3829843 C13.2000527,48.2993394 12.3864064,47.2496722 11.1397739,47.0384868 L11.1397739,47.0384868 Z" id="Path" fill="#C3996C"></path>
                    <path d="M55.4179078,17.8756709 C56.5562341,18.2586041 57.8192897,17.7273478 58.2395266,16.6888643 L59,14.8081585 L56.9126315,14.109474 C55.7829663,13.7550279 54.5499003,14.2889347 54.1363965,15.3115594 C53.7228927,16.3341841 54.2804295,17.4709099 55.3916846,17.8708854 L55.4179078,17.8756709 Z" id="Path" fill="#C3996C"></path>
                    <path d="M58,50.5809637 L57.5606017,48.6192372 C57.3833302,47.8249003 56.6727415,47.2016558 55.7603544,47.0402727 C54.8479672,46.8788896 53.9135764,47.21117 53.3931133,47.8820915 C52.8726502,48.5530131 52.8686771,49.4303641 53.3830477,50.1048246 C53.8974184,50.7792851 54.8287709,51.117946 55.7425914,50.9628083 L58,50.5809637 Z" id="Path" fill="#C3996C"></path>
                    <path d="M2,37.1603727 L2.56557734,40 C7.30391375,39.1067132 11.2522011,35.7663352 13,31.1721432 C12.1654204,30.715837 11.2986609,30.3240301 10.4069717,30 C9.00292509,33.7134789 5.82368415,36.421297 2,37.1603727 L2,37.1603727 Z" id="Path" fill="#C3996C"></path>
                    <path d="M32,64 L32,68 L35,68 L35,64 C34.4923858,64 33.9847716,64.0465116 33.5025381,64.0465116 C33.0203046,64.0465116 32.4974619,64.0290698 32,64 Z" id="Path" fill="#C3996C"></path>
                    <path d="M34.9798319,37.4331476 L33.9260504,36.4143454 L33.497479,36 L33.0537815,36.4289694 L32,37.4477716 L32,63.9610028 C32.5042017,63.9610028 33.0084034,64 33.512605,64 C34.0168067,64 34.5210084,64 35,63.9610028 L35,37.4331476 L34.9798319,37.4331476 Z" id="Path" fill="#C3996C"></path>
                    <path d="M26.9749322,20 L29,17.8497623 C25.6758537,12.7829046 21.8238943,8.13649439 17.5182927,4 C16.6551491,4.50375066 15.8157182,5.04638141 15,5.62789223 C17.9830623,8.4526149 22.9911924,13.6608558 26.9749322,20 Z" id="Path" fill="#C3996C"></path>
                    <path d="M25.3892363,23.1707014 L25.5271935,23.1707014 C26.1554408,23.2312719 26.7741466,23.3679927 27.3699071,23.5779019 C27.6680058,23.7025045 27.9591343,23.8434135 28.2419936,24 C28.2244424,23.1882212 28.4894027,22.3958623 28.9909039,21.7603973 C29.0660465,21.6522937 29.1483514,21.5494317 29.237256,21.452514 L31.1095319,19.5704531 L31.5135494,19.1632526 L32.9916619,17.6734947 L34.4402122,19.1334575 L34.8540838,19.5456238 L36.6967974,21.4078212 C36.7893758,21.5090141 36.8765436,21.6151025 36.9579306,21.7256363 C37.4529252,22.3531619 37.7174994,23.13384 37.706841,23.9354438 C37.706841,23.9354438 37.706841,23.9801366 37.706841,24 C37.982558,23.8441383 38.2671812,23.704851 38.5592193,23.5828678 C39.1556643,23.3684589 39.7763517,23.2299978 40.40686,23.1707014 L40.5497442,23.1707014 C40.3891538,21.7376312 39.7538333,20.4009947 38.7464468,19.3767846 L38.5641463,19.1930478 C42.7028615,13.0006207 47.9255259,7.89571695 51,5.10986965 C50.1525488,4.54045107 49.27882,4.00910408 48.3788137,3.51582868 C43.9078352,7.57065038 39.9077705,12.1236694 36.4553724,17.0875233 L34.4254311,15.0415891 L34.4254311,12.7523277 L39.702293,8.74984482 L40.9783968,0.595903166 C40.0422589,0.35257604 39.0864127,0.158907511 38.1207125,0.00496585971 L37.0121281,7.11607697 L32.9768808,10.1800124 L28.9465605,7.11607697 L27.8527572,0 C26.887057,0.152286365 25.936138,0.349265467 25,0.590937306 L26.2711768,8.74487896 L31.5332575,12.7175667 L31.5332575,15.0068281 L29.5131704,17.0428305 L27.4093235,19.1682185 L27.2122418,19.361887 C26.1887635,20.3829182 25.5450577,21.7278159 25.3892363,23.1707014 Z" id="Path" fill="#C3996C"></path>
                    <path d="M42.3574305,25.0682922 C42.1158557,25.0334558 41.8726452,25.0106626 41.6287308,25 L41.5791594,25 C41.3472851,25.0008433 41.1156221,25.0138699 40.8851596,25.0390241 C40.3775483,25.0865977 39.8779654,25.1963902 39.3980171,25.365851 C38.5104815,25.6745101 37.7042898,26.1745035 37.0384178,26.8292549 L34.7432614,29.082897 L34.3219044,29.4975282 L33.8261902,29.9853295 L33.3056904,30.4731308 L32.8099762,30.9609321 L32.3142621,31.4487334 L32.3142621,31.4487334 L32.3142621,31.4487334 L31.8780337,31.8779986 L31.2980481,32.4487261 L31.2980481,32.4487261 L30.802334,32.9365274 L30.2818341,33.4243288 L27.5901064,36.0730899 C27.3178297,36.3392264 27.0008668,36.5570637 26.6532067,36.7169877 C26.5809563,36.7597804 26.5064992,36.798857 26.4301353,36.83406 L26.3062068,36.8682061 C26.1339788,36.9342562 25.9565932,36.9864592 25.7757926,37.0243025 C25.6783692,37.0293327 25.5807447,37.0293327 25.4833213,37.0243025 C25.3585872,37.0442804 25.232806,37.0573092 25.1065785,37.0633266 L25.1065785,37.0633266 C24.9776929,37.0633266 24.8537643,37.0389365 24.7248787,37.0291805 C24.595993,37.0194245 24.5315501,37.0291805 24.4324073,36.9999124 C24.25305,36.962728 24.0772561,36.9105052 23.9069503,36.843816 L23.7780646,36.8096699 C23.6640504,36.7608898 23.5549933,36.6925976 23.4459362,36.6340614 C23.2965866,36.5572595 23.15252,36.4708957 23.0146649,36.3755267 C22.8735313,36.2775456 22.7408874,36.1682296 22.6180936,36.0486998 L22.5833936,36.0486998 L19.9114944,33.4194507 L19.4157802,32.9316494 L18.9200661,32.4438481 L18.9200661,32.4438481 L17.8939378,31.4340994 L17.8939378,31.4340994 C17.5439631,31.0942098 17.1695557,30.7795764 16.7736239,30.4926428 C16.5951668,30.3658145 16.3869668,30.2194741 16.1638955,30.0731337 L15.5343385,29.6731366 C13.0557678,28.1707086 8.49024063,26.2585274 1.44118558,26.1707232 C1.25281421,27.1138057 1.10575235,28.0698963 1,29.0389949 C4.2506214,28.9962475 7.48420495,29.5078709 10.5573686,30.551179 C11.4795892,30.873468 12.3760266,31.2631697 13.2391821,31.7170241 C14.1696383,32.1811816 15.033157,32.7651692 15.8069813,33.4535968 L20.565837,38.1413675 L20.565837,38.1413675 L20.565837,38.1413675 C21.7744798,39.3313935 23.4141636,40 25.1239285,40 C26.8336935,40 28.4733773,39.3313935 29.68202,38.1413675 L31.9375194,35.9218715 L32.3737478,35.4926063 L32.8942477,35.004805 L33.3899618,34.5170037 L34.4260043,33.497499 L34.8473614,33.0828678 L35.4620469,32.4779942 L35.4620469,32.4779942 L35.9825467,31.9901929 L36.4782609,31.4780015 L39.1898172,28.8097283 C39.420328,28.5874859 39.6804833,28.3971249 39.9631313,28.2438788 C40.2367826,28.0986167 40.528364,27.9887647 40.830631,27.9170519 C40.8842229,27.8978925 40.9388317,27.8816085 40.9942167,27.8682717 C41.0884024,27.8682717 41.1875452,27.8682717 41.286688,27.8682717 C41.4097229,27.8480375 41.5338697,27.8350066 41.6584736,27.8292476 L41.6584736,27.8292476 C41.7278736,27.8292476 41.7923164,27.8292476 41.8617164,27.8292476 C42.7112469,27.8708332 43.5156655,28.2180166 44.1221729,28.8048503 L46.8585149,31.4877575 L46.8585149,31.4877575 L47.8747289,30.5121549 C48.2249132,30.1601505 48.6010255,29.8340636 49,29.5365523 L46.194258,26.7755968 C45.1532966,25.7886574 43.7980202,25.1855889 42.3574305,25.0682922 L42.3574305,25.0682922 Z" id="Path" fill="#C3996C"></path>
                    <path d="M56.233602,30.2768496 L56.233602,30.2768496 C59.3750325,29.2595192 62.6791067,28.7621463 66,28.8066826 C65.8954744,27.8520286 65.7454296,26.9164678 65.5498657,26 C58.3578315,26.0906921 53.7098151,27.9618138 51.1809704,29.4272076 C50.9483167,29.5608592 50.7358938,29.6897375 50.5386439,29.8186158 C50.341394,29.947494 50.0986249,30.1002387 49.9165481,30.2291169 C49.5193417,30.5034372 49.1440597,30.8049671 48.7937411,31.1312649 L48.7937411,31.1312649 L47.7417417,32.1193317 L47.2359728,32.6205251 L46.7049154,33.097852 L43.9687055,35.6801909 L43.9383594,35.6801909 C43.5989283,36.0009223 43.1947684,36.2541282 42.7498024,36.424821 C42.5514411,36.4986482 42.3466843,36.5561418 42.137822,36.5966587 C42.1210903,36.5938948 42.1039769,36.5938948 42.0872451,36.5966587 C41.9481408,36.6164695 41.8080097,36.6292165 41.6674569,36.6348449 C41.5764185,36.6348449 41.4904378,36.6587112 41.3993994,36.6587112 L41.3993994,36.6587112 C41.2451547,36.653874 41.0914101,36.6395236 40.9391497,36.6157518 C40.8632843,36.6157518 40.787419,36.6157518 40.7115537,36.6157518 C40.6356883,36.6157518 40.4991307,36.5536993 40.3878615,36.5250597 C40.2765924,36.49642 40.1602655,36.4725537 40.0489964,36.4295943 L39.9276118,36.3675418 C39.7520248,36.2981767 39.5828524,36.2151541 39.4218429,36.1193317 C39.2199451,35.9924246 39.0318893,35.8469225 38.8604394,35.6849642 L36.1141141,33.0930788 L36.1141141,33.0930788 L35.4869606,33.6849642 L35.0570571,34.0906921 L34,35.0883055 L34,35.0883055 L34.4299036,35.4940334 L36.7463253,37.6801909 C37.9796879,38.8461254 39.6537145,39.5013031 41.3993994,39.5013031 C43.1450843,39.5013031 44.8191109,38.8461254 46.0524735,37.6801909 L46.0524735,37.6801909 L46.0524735,37.6801909 L50.943259,33.0644391 C51.7111588,32.3933694 52.5741654,31.8262889 53.5075075,31.3794749 C55.3492829,35.8617027 59.5196135,39.1237844 64.5282124,40 L65.1250198,37.2362768 C61.0788514,36.5369539 57.71018,33.9002514 56.233602,30.2768496 L56.233602,30.2768496 Z" id="Path" fill="#C3996C"></path>
                    <path d="M28.4684408,26.9508409 C27.8183603,26.2470482 27.031456,25.7122036 26.1661549,25.3860189 C25.6960669,25.2025734 25.2065283,25.0851395 24.7093142,25.036542 C24.4919478,25.0115061 24.2735012,24.9993174 24.0549301,25.0000295 L24.0023883,25.0000295 C23.7674403,25.0096748 23.5330904,25.0323068 23.3002388,25.0678384 C21.9351906,25.2292484 20.6605579,25.8911953 19.6844081,26.9456249 L17,29.8770581 C17.3812441,30.1994311 17.7433939,30.5478678 18.0842716,30.9202728 L19.0730126,32 L19.0730126,32 L21.6809962,29.1468078 C22.113093,28.6814332 22.6530316,28.3532627 23.2429205,28.1974825 L23.429205,28.1348896 C23.5247356,28.1348896 23.6202661,28.1348896 23.7157967,28.1035932 C23.8113272,28.0722967 23.954623,28.0670806 24.0788127,28.0670806 L24.0788127,28.0670806 C24.1456841,28.0670806 24.2077789,28.0670806 24.2746503,28.0670806 C25.0999126,28.1064868 25.8826048,28.478103 26.4718526,29.1102953 L29.0655067,31.9426232 L29.0655067,31.9426232 L29.6243603,31.3323426 L30.0446946,30.8733281 L30.0446946,30.8733281 L30.5223473,30.3517208 L31,29.8301135 L30.5796656,29.3763151 L28.4684408,26.9508409 Z" id="Path" fill="#C3996C"></path>
                    <path d="M20,21.9017936 L18.7196236,13.7912379 L10.7135345,8 L8.63105453,9.96648045 L16.0094105,15.3013819 L16.7367838,19.9117906 L12.6913922,21.0502793 L3.15084417,17.5783593 C2.72737337,18.4110556 2.34375865,19.2672743 2,20.1376066 L12.5369499,24 L20,21.9017936 Z" id="Path" fill="#2567B1"></path>
                    <path d="M64,20.1410106 C63.655765,19.2714454 63.2716186,18.4159812 62.847561,17.5840188 L53.3237251,21.06698 L49.2727273,19.9294947 L50.0011086,15.3231492 L57.3847007,9.97884841 C56.7161863,9.29259694 56.0127494,8.62984724 55.2793792,8 L47.2621951,13.800235 L46,21.9036428 L53.4833703,24 L64,20.1410106 Z" id="Path" fill="#2567B1"></path>
                    <path d="M45.2309396,42.1333794 L45.2309396,42.1043538 C43.8673429,42.8839437 42.6239531,43.8464447 41.5375669,44.9633725 L38.0485509,42.0076019 L36,44.2909468 L39.6834041,47.406358 C38.5247533,49.3789306 37.9229887,51.6133454 37.9388961,53.8838977 L37.9388961,68 L40.8846225,68 L40.8846225,53.8838977 C40.8846225,49.6268141 43.2721063,46.9080857 45.6446373,45.2536282 L46.4271737,50.3669661 L53.3802843,57.3572909 C54.1378992,56.747754 54.8656083,56.1027413 55.5634115,55.4222529 L49.2034336,49.0463027 L48.4557873,44.1845197 L52.4432343,43.0283345 L61.8187188,46.975812 C62.2540151,46.1243953 62.6477755,45.2504031 63,44.3538355 L52.6525752,40 L45.2309396,42.1333794 Z" id="Path" fill="#2567B1"></path>
                    <path d="M20.3994762,56 L17.9596553,56.3881463 C16.6130334,56.6061353 15.7624454,57.5803872 16.0589811,58.5651528 C16.3555169,59.5499184 17.6870859,60.1729563 19.0344273,59.9573569 C20.3817688,59.7417576 21.2355878,58.7690174 20.9423214,57.7837287 L20.3994762,56 Z" id="Path" fill="#2567B1"></path>
                    <path d="M5.23790718,34.5987123 L5.23790718,34.5987123 C6.11034254,33.897505 6.25332179,32.6847074 5.56517241,31.8227397 C4.87702303,30.9607721 3.59254946,30.7437476 2.62514073,31.3259924 L1,32.4690021 C1,32.5520412 1,32.6350804 1,32.7181195 L2.18619597,34.1835165 C2.90893942,35.0816718 4.27125758,35.2670199 5.23790718,34.5987123 Z" id="Path" fill="#2567B1"></path>
                    <path d="M31.8001934,2.59734486 C31.8001934,2.59734486 31.8001934,2.62646937 31.7653669,2.64103163 C31.7305404,2.65559388 31.7305404,2.64103163 31.7131271,2.67015614 C31.256591,3.05083704 31,3.56781687 31,4.10696531 C31,4.64611375 31.256591,5.16309358 31.7131271,5.54377449 L33.4544527,7 L33.5473234,6.92718872 L34.359942,6.24276273 L35.1725606,5.56319083 L35.1725606,5.56319083 L35.2654312,5.49037955 C35.8933199,4.97858062 36.1431803,4.22376267 35.9193892,3.51479923 C35.6955982,2.80583578 35.0328046,2.25249336 34.1846637,2.06653954 C33.3365228,1.88058572 32.4343495,2.09081113 31.8234111,2.6167612 L31.8001934,2.59734486 Z" id="Path" fill="#2567B1"></path>
                    <path d="M48.975691,56.3902345 L46.5797012,56 L46.0583245,57.7733988 C45.917098,58.244345 46.0347309,58.7375283 46.3852882,59.1442149 C46.7358456,59.5509015 47.2905412,59.8376961 47.9270793,59.9413681 L47.9270793,59.9413681 C48.797958,60.1091462 49.7230581,59.910748 50.337843,59.4243525 C50.9526279,58.9379571 51.158519,58.2415562 50.8743847,57.6095673 C50.5902504,56.9775783 49.8616507,56.5113387 48.975691,56.3945704 L48.975691,56.3902345 Z" id="Path" fill="#2567B1"></path>
                    <path d="M65.9981898,31.8762425 L65.3303164,31.3978018 C64.4091315,30.7372396 63.1046204,30.9179652 62.4156013,31.8016034 C61.7265822,32.6852416 61.9136027,33.9376509 62.8334678,34.5999057 C63.753333,35.2621604 65.0582023,35.0838337 65.7489833,34.201464 L65.9732692,33.9143996 L67,32.5986878 L65.9981898,31.8762425 Z" id="Path" fill="#2567B1"></path>
                    <path d="M27.0167442,42.0069085 L23.7129302,44.9084629 C22.6720064,43.8233746 21.4871356,42.8861436 20.1914419,42.1229706 L20.1914419,42.1519862 L12.9743256,40 L3,44.5506045 C3.35472868,45.4371906 3.74331783,46.3060449 4.16576744,47.1571675 L13.1726512,43.0417962 L17.0424186,44.197582 L16.3216744,49.0431779 L10.1687442,55.4507772 C10.8459535,56.1213587 11.552186,56.7661485 12.2874419,57.3851468 L19.0111628,50.373057 L19.7706047,45.2566494 C22.0731163,46.9153713 24.3901395,49.608981 24.3901395,53.8887737 L24.3901395,68 L27.2489302,68 L27.2489302,53.8791019 C27.2741212,51.5774531 26.6810993,49.3112085 25.5317209,47.316753 L29,44.2894646 L27.0167442,42.0069085 Z" id="Path" fill="#2567B1"></path>
                </g>
                <text id="Mana-Group" font-family="Bauhaus93, Bauhaus 93" font-size="20" font-weight="normal" fill="#2567B1">
                    <tspan x="87" y="42">Mana Group</tspan>
                </text>
            </g>
        </g>
    </g>
</svg>