<?xml version="1.0" encoding="UTF-8"?>
<svg width="20px" height="28px" viewBox="0 0 20 28" version="1.1" xmlns="http://www.w3.org/2000/svg" xmlns:xlink="http://www.w3.org/1999/xlink">
    <!-- Generator: Sketch 53.1 (72631) - https://sketchapp.com -->
    <title>maps-and-flags (1)</title>
    <desc>Created with Sketch.</desc>
    <g id="Page-1" stroke="none" stroke-width="1" fill="none" fill-rule="evenodd">
        <g id="Desktop-HD-Copy-2" transform="translate(-100.000000, -5810.000000)" fill="#2568B2" fill-rule="nonzero">
            <g id="maps-and-flags-(1)" transform="translate(100.000000, 5810.000000)">
                <path d="M10,0 C4.48597022,0 0,4.54902117 0,10.1404967 C0,17.0796927 8.94902037,27.2668379 9.33003284,27.6971197 C9.68790953,28.1013155 10.3127376,28.1006046 10.6699672,27.6971197 C11.0509796,27.2668379 20,17.0796927 20,10.1404967 C19.9998921,4.54902117 15.5139759,0 10,0 Z M10,15.2424639 C7.22575461,15.2424639 4.96880174,12.9537345 4.96880174,10.1404967 C4.96880174,7.32725893 7.22580854,5.03858427 10,5.03858427 C12.7741915,5.03858427 15.0311443,7.32731362 15.0311443,10.1405514 C15.0311443,12.9537892 12.7741915,15.2424639 10,15.2424639 Z" id="Shape"></path>
            </g>
        </g>
    </g>
</svg>