<?xml version="1.0" encoding="UTF-8"?>
<svg width="292px" height="159px" viewBox="0 0 292 159" version="1.1" xmlns="http://www.w3.org/2000/svg" xmlns:xlink="http://www.w3.org/1999/xlink">
    <!-- Generator: Sketch 53.1 (72631) - https://sketchapp.com -->
    <title>shutterstock_1138201901</title>
    <desc>Created with Sketch.</desc>
    <g id="Page-1" stroke="none" stroke-width="1" fill="none" fill-rule="evenodd">
        <g id="iPhone-8" transform="translate(-44.000000, -4072.000000)">
            <g id="shutterstock_1138201901" transform="translate(44.000000, 4072.000000)">
                <path d="M161.669654,133.571199 C131.962843,147.163852 119.165297,132.989364 119.62316,118.403748 C120.663054,85.2385087 224.360752,20.1909342 237.903297,16.5937223 C251.446489,12.9965103 270.987823,13.4995075 278.10799,30.5727447 C285.234624,47.645982 191.377112,119.977894 161.669654,133.571199 Z M289.257098,35.366204 C267.586181,-5.71472568 234.112988,4.49051455 203.226596,24.3152508 C177.984602,40.5173646 122.751248,75.3173446 116.281661,106.148077 C109.810781,136.978809 128.209396,161.370265 163.176465,158.816186 C198.143534,156.262107 310.928015,76.4464821 289.257098,35.366204 L289.257098,35.366204 Z" id="Fill-4" fill="#CE9616"></path>
                <path d="M269.532274,12 C275.59198,19.0948345 278.107696,30.0736118 278.107696,30.0736118 C285.234481,47.2131936 191.374989,119.826179 161.666904,133.472305 C144.536753,141.340266 133.030424,139.939875 126.444292,134.536498 L126.443646,134.535844 C126.422304,134.518184 126.400316,134.501177 126.378974,134.483517 C116.902032,127.273564 115.622833,109.759847 115.616366,109.674816 C111.331241,138.833821 129.624183,161.276051 163.173747,158.815392 C198.141554,156.251388 310.928414,76.125609 289.25704,34.8856979 C283.443084,23.8160031 276.775466,16.4601896 269.532274,12" id="Fill-5" fill="#FBC02B"></path>
                <path d="M182.960712,50.0524562 C193.74092,57.0577538 199.879079,64.3395849 198.565341,71.197485 C192.190097,104.471507 26.4187607,55.3855089 13.2253656,41.686666 C6.62866804,34.8372445 7.22072946,26.512543 11.7071091,21.5414622 C29.6096396,1.70474985 126.238102,20.0466161 173.151642,44.3913461 C177.038144,41.6605779 180.861467,39.0615544 184.534332,36.6171027 C146.863203,7.88370803 81.6322333,-9.4035482 30.5970599,5.41969029 C-3.4181388,15.2992405 -8.50244183,56.7362184 12.5095509,71.6983759 C33.5215437,86.6605333 131.895577,111.827037 169.713908,107.50881 C205.292956,103.446246 209.244592,62.7103853 192.368562,43.4906557 C189.267567,45.6044411 186.120327,47.797143 182.960712,50.0524562" id="Fill-6" fill="#9F7A54"></path>
                <path d="M196.105793,48.4096495 C203.320137,65.6963208 197.4606,74.0328952 197.4606,74.0328952 L197.458646,74.0322405 C181.641283,101.310099 25.9909794,54.7334505 13.2232331,41.4251821 C7.10380779,35.04638 7.1728508,27.3960081 10.7950035,22.3378839 C11.7192679,19.2545562 12.9190531,16.3283741 13.984009,14 C-4.40618321,30.1473658 -4.40878861,59.4622237 12.5074004,71.5552328 C33.5199243,86.5763884 131.896445,111.842128 169.715731,107.506874 C202.366562,103.764189 208.379166,69.0166765 196.105793,48.4096495" id="Fill-7" fill="#C2986B"></path>
                <path d="M26.4886772,56.919165 C27.2463517,55.099506 31.5071182,56.3898332 32.6752548,57.3035453 C35.563642,59.5606473 32.911781,58.2864977 32.3511018,59.2642732 C31.4715405,60.7979119 27.128418,54.9014919 28.0027086,60.7577914 C28.0310391,60.9519228 31.5262248,62.5709793 31.2080015,62.90165 C30.1143147,64.0392604 27.8702803,62.7431093 27.5546923,63.0466015 C27.0618745,63.5209294 26.1809954,66.3636613 25.4714167,66.9512325 C19.7183607,71.7184544 25.7066252,58.7951222 26.4886772,56.919165" id="Fill-8" fill="#FFFFFE"></path>
                <path d="M37.7221337,63.0969059 C36.5797935,62.6829732 35.7159744,66.8879314 35.9965138,66.9893027 C37.5734545,67.5598409 39.5937417,63.774014 37.7221337,63.0969059 Z M37.6905141,69.3435854 C37.919924,69.8088535 40.7347363,75.1704839 37.4543767,73.7662319 C35.8175606,73.0657304 35.9743128,70.011596 34.9301951,69.6334032 C34.7196223,69.5573748 33.0686784,75.2471621 31.0699195,71.9954838 C30.4476199,70.9824209 34.1733442,61.9681758 34.5675794,61.6809572 C36.4445695,60.3143945 39.5675042,61.0902746 40.6815886,63.2437643 C42.2592021,66.2927001 37.4489946,68.8542741 37.6905141,69.3435854 L37.6905141,69.3435854 Z" id="Fill-9" fill="#FFFFFE"></path>
                <path d="M45.863962,67.3277241 C48.179239,68.135644 45.301468,76.7607522 42.963562,75.9457509 C40.3372969,75.0296792 43.677994,66.5642237 45.863962,67.3277241 Z M46.4743003,64.9091145 C43.5105389,63.8726595 47.176448,62.9186059 47.1454138,63.0055136 C47.176448,62.9179621 49.4380618,65.9455695 46.4743003,64.9091145 L46.4743003,64.9091145 Z" id="Fill-10" fill="#FFFFFE"></path>
                <path d="M47.0200276,76.5175355 C47.4634825,74.8616806 49.3774473,67.8850525 51.156683,67.0953842 C52.1207742,66.666882 56.8593096,67.7595626 56.9832062,68.8295938 C57.2628197,71.2561406 53.9717752,68.5596374 52.9975285,69.3364507 C49.1973572,72.3671856 54.7314032,71.7115772 54.1281692,73.3839601 C53.3015152,75.6782833 50.286022,72.1829296 50.2156108,75.9482397 C50.1952999,77.0292896 53.18642,77.2264006 53.1119467,77.4877869 C52.8594143,78.3723379 54.3197688,78.8210409 52.1052025,78.997339 C51.2663619,79.0640629 46.6598475,77.8660932 47.0200276,76.5175355" id="Fill-11" fill="#FFFFFE"></path>
                <path d="M62.8747637,82.3948448 C61.497771,80.4666684 63.6115642,75.4925802 61.8706797,73.9620407 C61.6710222,73.8987353 59.61455,79.8890069 58.6304318,80.2925786 C55.0868333,81.7472835 58.3985715,74.7559957 58.564738,74.3853954 C59.2963861,72.7467093 59.9204768,69.876206 62.0374903,70.0041357 C65.1798416,70.1927329 63.9110504,75.900768 65.1283171,77.257877 C65.5913937,77.2802977 67.8823024,67.367071 69.9258934,72.2297154 C70.6929647,74.0543611 65.3080088,85.7632185 62.8747637,82.3948448" id="Fill-12" fill="#FFFFFE"></path>
                <path d="M73.7708515,82.9049391 C76.7169919,82.6167281 78.6133502,77.1627979 75.5859275,75.9610238 C73.4043921,76.2420742 73.4973846,82.950289 73.7708515,82.9049391 Z M75.6975185,74.0819837 C85.5464582,76.4228774 76.1356165,88.8028216 70.767538,83.8346134 C68.5501833,81.7831241 71.4260627,73.0663831 75.6975185,74.0819837 L75.6975185,74.0819837 Z" id="Fill-13" fill="#FFFFFE"></path>
                <path d="M89.5835257,77.5419934 C87.9205223,79.1801857 87.271225,77.9271313 86.2464553,80.6624243 C85.4166823,82.8742552 87.5360608,85.4183353 86.8307538,87.6606789 C85.6109875,91.5385025 80.9006428,92.2647045 81.0015985,88.6404752 C80.9988326,88.7387939 83.3809726,89.0161203 83.6430425,88.2736449 C84.4631348,85.9512903 82.892098,83.5224803 83.1313492,81.214365 C83.3429413,79.1734051 83.3574623,77.1873682 85.4768408,76.1777372 C85.9470455,75.9539775 91.5487047,75.6054548 89.5835257,77.5419934" id="Fill-14" fill="#FFFFFE"></path>
                <path d="M99.7848087,80.3619707 C100.229734,78.4042143 104.946924,78.9319114 106.355031,79.6403448 C109.824175,81.3843838 106.790789,80.5862419 106.391696,81.6647229 C105.764148,83.3652269 100.057687,78.2162222 102.114495,83.9410764 C102.18289,84.1310474 106.164651,85.1264161 105.893183,85.5162523 C104.965257,86.8500068 102.355642,85.9588583 102.08488,86.3157134 C101.658288,86.8783705 101.282464,89.888223 100.650685,90.6039122 C95.526645,96.4046228 99.3271919,82.382391 99.7848087,80.3619707" id="Fill-15" fill="#FFFFFE"></path>
                <path d="M115.100579,85.656201 C112.150391,84.0842635 110.067235,87.6037633 111.167945,90.025486 C113.540349,95.2432338 118.536646,87.5257286 115.100579,85.656201 Z M113.770465,83.0803927 C121.829514,84.4241776 119.971487,95.3126715 112.304277,93.8683672 C105.666533,92.6191497 107.136284,81.9746799 113.770465,83.0803927 L113.770465,83.0803927 Z" id="Fill-16" fill="#FFFFFE"></path>
                <path d="M124.990131,86.3591289 C123.110604,86.0871827 122.655395,89.7640266 123.657946,89.9114673 C124.510353,90.0366281 127.094191,86.6638397 124.990131,86.3591289 Z M127.023897,96.9538912 C125.407804,96.7324025 124.544477,94.7462122 123.188406,94.548314 C123.192501,94.5489693 122.812364,97.8319826 121.333448,96.6898085 C119.357692,95.1636333 120.158231,94.3412417 120.171198,91.795432 C120.189625,88.147421 120.632549,82.0453412 126.217215,84.6127755 C133.511473,87.9672157 124.117932,90.2633591 124.482372,92.3747102 C124.477595,92.3491538 131.297535,97.5397223 127.023897,96.9538912 L127.023897,96.9538912 Z" id="Fill-17" fill="#FFFFFE"></path>
                <path d="M131.000639,96.3841249 C131.078883,94.6659941 131.453668,87.4144807 132.984368,86.3176962 C133.815469,85.7229349 138.554853,85.9690004 138.894789,87.0076688 C139.666057,89.3619841 135.969495,87.272282 135.202831,88.2132662 C132.211785,91.8869377 137.347651,90.2609269 137.12015,92.0248085 C136.809145,94.4440405 133.211869,91.5128934 133.925932,95.2564277 C134.13042,96.3303367 137.020865,95.9983337 137.00377,96.2703659 C136.947881,97.191566 138.43124,97.378279 136.358088,97.9439823 C135.573013,98.1578986 130.937517,97.7844725 131.000639,96.3841249" id="Fill-18" fill="#FFFFFE"></path>
                <path d="M149.067084,89.2920201 C153.407727,87.2092588 149.176998,95.3886595 148.505663,96.0932018 C145.066716,99.7058264 144.259797,97.7807484 142.914494,93.694403 C142.548551,92.5832391 140.498345,86.1960599 144.083407,88.4955518 C145.246397,89.2410246 144.964699,94.3144002 146.171128,94.4385339 C147.131401,94.5371698 148.004795,89.8174073 149.067084,89.2920201" id="Fill-19" fill="#FFFFFE"></path>
                <path d="M158.996008,98.9382432 C158.341568,99.9608514 155.449307,100.270977 154.447044,99.7541013 C152.420704,98.7085896 153.081203,96.3365346 153.185429,94.3569334 C153.33086,91.5924246 153.244813,88.8737227 155.98922,88.0857201 C156.707892,87.87897 160.087348,87.9631556 159.998271,89.2853658 C159.868595,91.2073989 155.862574,88.8130595 156.038303,92.3977595 C156.063753,92.9140158 158.780891,93.0532935 159.008734,94.2851279 C159.382613,96.3099171 153.578699,91.8740751 155.741987,97.3969026 C155.783192,97.5033727 159.97585,97.4872784 158.996008,98.9382432" id="Fill-20" fill="#FFFFFE"></path>
                <path d="M167.471141,91.2474704 C165.542169,91.151002 165.45556,94.8344012 166.48379,94.8871981 C167.359587,94.9321733 169.634304,91.3563233 167.471141,91.2474704 Z M170.614033,101.551341 C168.953899,101.479642 167.876474,99.5926412 166.481018,99.5209417 C166.481018,99.5209417 166.436674,102.808038 164.820884,101.812067 C162.664649,100.481063 163.390091,99.5985076 163.143427,97.0727295 C162.790059,93.4499489 162.623769,87.3730898 168.536093,89.4060967 C176.266529,92.0654966 166.986819,95.1902915 167.569529,97.2500228 C167.563293,97.2246021 175.003413,101.739064 170.614033,101.551341 L170.614033,101.551341 Z" id="Fill-21" fill="#FFFFFE"></path>
                <path d="M160.154883,144.641147 C159.191351,142.923888 162.979144,140.536026 164.464645,140.233773 C168.136519,139.487446 165.402715,140.676564 165.820826,141.714877 C166.478145,143.343577 158.956834,142.887952 164.201315,145.925241 C164.374858,146.02535 167.929474,144.421035 167.988438,144.868318 C168.189453,146.40846 165.702228,147.276716 165.73975,147.705389 C165.800055,148.374709 167.501312,150.829952 167.512033,151.734786 C167.599139,159.065222 161.148567,146.412311 160.154883,144.641147" id="Fill-22" fill="#FFFFFE"></path>
                <path d="M171.778256,138.229241 C170.842262,138.823097 173.329706,142.173623 173.559683,142.028604 C174.851367,141.207706 173.311237,137.255449 171.778256,138.229241 Z M176.17999,142.266147 C176.638156,142.39148 182.016994,143.716992 179.175648,145.284639 C177.757655,146.066166 175.68548,143.986687 174.829323,144.52936 C174.657138,144.638288 177.752293,149.536776 174.325876,148.951451 C173.258211,148.769029 168.980998,140.174856 169.000064,139.693866 C169.090624,137.402437 171.398734,135.551313 173.549555,136.095954 C176.595259,136.866982 175.697992,142.132939 176.17999,142.266147 L176.17999,142.266147 Z" id="Fill-23" fill="#FFFFFE"></path>
                <path d="M180.261754,134.545214 C182.510401,133.348921 187.708537,140.628959 185.438421,141.836819 C182.889215,143.193836 178.138454,135.673931 180.261754,134.545214 Z M178.670318,132.646974 C175.790775,134.176281 177.497171,130.939288 177.547726,131.014171 C177.496478,130.939288 181.550553,131.116449 178.670318,132.646974 L178.670318,132.646974 Z" id="Fill-24" fill="#FFFFFE"></path>
                <path d="M189.287814,139.697109 C188.18837,138.247236 183.585966,132.101731 184.030086,130.245894 C184.272214,129.238476 188.107441,126.459934 189.070689,127.092665 C191.256419,128.528202 186.985626,129.146597 187.027077,130.395768 C187.191566,135.269947 190.068808,130.716369 191.083377,132.297219 C192.474296,134.464534 187.712009,134.336815 190.791244,136.939418 C191.67488,137.686184 193.687568,135.598367 193.857978,135.830347 C194.435664,136.616862 195.710125,135.836863 194.487643,137.600821 C194.024441,138.26874 190.183293,140.87851 189.287814,139.697109" id="Fill-25" fill="#FFFFFE"></path>
                <path d="M202.621424,130.966271 C200.470919,130.831271 198.251426,126.095308 196.16396,126.48868 C196.002791,126.604301 198.96271,131.928061 198.665945,132.94088 C197.596639,136.589096 194.677161,129.670534 194.515993,129.31075 C193.805897,127.723699 192.175771,125.451961 193.507348,123.893331 C195.484791,121.579607 198.711738,126.117916 200.371006,126.021672 C200.658255,125.677391 195.105954,117.727923 199.690052,119.176099 C201.409981,119.719327 206.39492,131.182657 202.621424,130.966271" id="Fill-26" fill="#FFFFFE"></path>
                <path d="M211.063766,122.301736 C212.744013,120.068944 208.952907,115.156554 205.84134,116.461697 C204.659659,118.159189 210.925713,122.520807 211.063766,122.301736 Z M204.17683,115.144796 C212.848447,109.861718 218.082319,124.553093 209.940741,124.996805 C206.578817,125.179983 200.415767,117.435759 204.17683,115.144796 L204.17683,115.144796 Z" id="Fill-27" fill="#FFFFFE"></path>
                <path d="M215.830263,107.864064 C216.063777,110.142227 214.653633,109.839322 216.165547,112.331063 C217.38888,114.345948 220.76542,114.361395 222.091917,116.303072 C224.385232,119.661214 221.940656,123.647999 219.130823,121.288569 C219.2075,121.353045 220.955019,119.742481 220.5333,119.077569 C219.217955,117.000223 216.28335,116.646946 214.60693,115.013546 C213.123595,113.568874 211.55731,112.306213 212.115652,110.08178 C212.239728,109.588805 215.555623,105.170835 215.830263,107.864064" id="Fill-28" fill="#FFFFFE"></path>
                <path d="M224.285624,101.710662 C223.020354,100.149979 226.286063,97.0930105 227.691397,96.5291931 C231.156816,95.1400206 228.696643,96.8157017 229.301802,97.7856254 C230.254105,99.3147665 222.769042,100.155236 228.498945,102.30405 C228.689272,102.37502 231.877912,100.143407 232.019317,100.584998 C232.503175,102.097711 230.226628,103.409343 230.343236,103.829906 C230.526861,104.493607 232.658653,106.670678 232.837587,107.578831 C234.287152,114.939343 225.591773,103.321287 224.285624,101.710662" id="Fill-29" fill="#FFFFFE"></path>
                <path d="M238.306328,92.3001473 C235.360266,93.4640552 236.840878,97.3681983 239.351195,98.1556699 C244.760769,99.8510173 241.765924,90.9694725 238.306328,92.3001473 Z M235.541552,91.5825655 C241.318972,86.4370129 248.600077,95.0770572 242.976256,99.862089 C238.107903,104.004965 230.785926,95.8174743 235.541552,91.5825655 L235.541552,91.5825655 Z" id="Fill-30" fill="#FFFFFE"></path>
                <path d="M246.081142,85.7314927 C244.748348,86.9341874 247.260846,89.5735236 247.973557,88.9337237 C248.578846,88.3889244 247.574104,84.3853278 246.081142,85.7314927 Z M255.325798,90.8918993 C254.188548,91.9343208 252.166843,91.3184325 251.203911,92.1850706 C251.206484,92.1831318 253.465546,94.5200173 251.714001,94.8838631 C249.373248,95.3704988 249.229806,94.2699136 247.310375,92.6633049 C244.557948,90.3606714 240.201922,86.2084345 245.49515,83.7397115 C252.408701,80.5142151 248.516452,88.8180427 250.332964,89.8766208 C250.311093,89.8636955 258.331662,88.1375282 255.325798,90.8918993 L255.325798,90.8918993 Z" id="Fill-31" fill="#FFFFFE"></path>
                <path d="M257.416425,86.8249512 C256.168597,85.666142 250.93254,80.7404239 251.000659,78.9171228 C251.03743,77.9284884 253.986404,74.619119 254.96598,75.0361407 C257.187355,75.9823872 253.458941,77.3456554 253.720563,78.5100747 C254.739924,83.0543021 256.511599,78.2545009 257.705777,79.5523173 C259.34423,81.3319838 255.040729,82.0837449 258.273629,83.9619009 C259.20076,84.5010993 260.637269,82.1741308 260.831979,82.3605127 C261.491459,82.9925904 262.498161,82.02702 261.713898,83.9064227 C261.41671,84.6182893 258.432772,87.7693276 257.416425,86.8249512" id="Fill-32" fill="#FFFFFE"></path>
                <path d="M263.631967,69.4010038 C264.935263,64.7364744 268.778575,73.1336839 268.901595,74.0945915 C269.502226,79.0180045 267.331272,78.4381579 262.992983,76.9218391 C261.811985,76.5090781 255.063938,74.0972331 259.483999,72.760548 C260.917552,72.327314 264.9425,75.7218604 265.889759,74.8652988 C266.643804,74.1844083 263.32731,70.552772 263.631967,69.4010038" id="Fill-33" fill="#FFFFFE"></path>
                <path d="M277.946562,67.833886 C278.321638,68.9530401 276.636975,71.3303515 275.556248,71.7729045 C273.375723,72.6669209 271.938992,70.7196878 270.438688,69.4318289 C268.347164,67.6342916 266.134852,66.0405068 267.342724,63.48261 C267.654227,62.8137313 269.974612,60.3087032 270.966338,61.1831166 C272.403069,62.4543426 267.832229,64.0231781 270.788335,66.0779308 C271.214269,66.3743522 273.140506,64.4033578 274.265733,64.983726 C276.122041,65.9371455 268.734954,67.6194408 274.551808,69.3546049 C274.666238,69.3878707 277.450699,66.2068355 277.946562,67.833886" id="Fill-34" fill="#FFFFFE"></path>
                <path d="M275.926344,55.7467998 C274.74151,56.9918025 277.438898,59.2307457 278.075432,58.5667038 C278.611128,58.0021166 277.262434,54.3501892 275.926344,55.7467998 Z M285.430225,59.7225612 C284.421856,60.8007955 282.38621,60.4114668 281.529096,61.3114104 C281.529096,61.3114104 283.955485,63.2877689 282.279071,63.7880745 C280.035449,64.4569679 279.795962,63.4448346 277.766618,62.1161443 C274.861254,60.2107382 270.23536,56.7267922 275.170067,53.9372097 C281.629933,50.2901338 278.592221,58.406606 280.464006,59.2319586 C280.438797,59.2216492 288.115009,56.8693035 285.430225,59.7225612 L285.430225,59.7225612 Z" id="Fill-35" fill="#FFFFFE"></path>
            </g>
        </g>
    </g>
</svg>