<?xml version="1.0" encoding="UTF-8"?>
<svg width="119px" height="40px" viewBox="0 0 119 40" version="1.1" xmlns="http://www.w3.org/2000/svg" xmlns:xlink="http://www.w3.org/1999/xlink">
    <!-- Generator: Sketch 53.1 (72631) - https://sketchapp.com -->
    <title>mana-bg-brown-mobile</title>
    <desc>Created with Sketch.</desc>
    <g id="Page-1" stroke="none" stroke-width="1" fill="none" fill-rule="evenodd" opacity="0.102678571">
        <g id="iPhone-8" transform="translate(-256.000000, -2693.000000)" fill="#C3996C" fill-rule="nonzero">
            <g id="mana-bg-brown-mobile" transform="translate(256.000000, 2693.000000)">
                <path d="M2,32.6169691 L3.43965142,40 C15.5008714,37.6774543 25.5510574,28.9924716 30,17.0475723 C27.8756157,15.8611761 25.6693186,14.8424782 23.3995643,14 C19.8256275,23.6550451 11.7330142,30.6953722 2,32.6169691 L2,32.6169691 Z" id="Path"></path>
                <path d="M101.67035,0.173006867 C101.076479,0.0847546667 100.478586,0.0270119777 99.8789631,0 L99.7571001,0 C99.1870759,0.00213648132 98.6175709,0.0351371505 98.0510172,0.0988610671 C96.8031395,0.21938082 95.5749982,0.497521883 94.3951255,0.926822504 C92.213267,1.70875884 90.231379,2.97540891 88.5944439,4.63411252 L82.9521842,10.3433391 L81.9163482,11.393738 L80.6977176,12.6295013 L79.4181555,13.8652647 L78.1995249,15.101028 L76.9808944,16.3367913 L76.9808944,16.3367913 L76.9808944,16.3367913 L75.9084994,17.4242631 L74.4827016,18.8701062 L74.4827016,18.8701062 L73.2640711,20.1058695 L71.9845089,21.3416329 L65.3673448,28.0518278 C64.697998,28.7260402 63.9187975,29.2778947 63.064133,29.6830354 C62.8865176,29.7914437 62.7034772,29.8904378 62.5157493,29.9796186 L62.2110916,30.066122 C61.7876978,30.2334489 61.3516248,30.3656968 60.9071569,30.4615663 C60.6676576,30.4743095 60.4276641,30.4743095 60.1881648,30.4615663 C59.8815269,30.5121769 59.5723147,30.5451832 59.2620056,30.5604274 L59.2620056,30.5604274 C58.9451616,30.5604274 58.640504,30.4986392 58.32366,30.4739239 C58.0068161,30.4492087 57.8483941,30.4739239 57.604668,30.3997781 C57.1637479,30.3055775 56.7315878,30.1732799 56.3129195,30.0043339 L55.9960756,29.9178304 C55.7157906,29.7942541 55.4476918,29.6212472 55.1795931,29.4729556 C54.8124421,29.2783908 54.4582782,29.0596025 54.1193845,28.8180011 C53.7724311,28.5697822 53.4463482,28.2928484 53.14448,27.9900396 L53.0591759,27.9900396 L46.490757,21.3292752 L45.2721264,20.0935119 L44.0534958,18.8577485 L44.0534958,18.8577485 L41.5309305,16.2997184 L41.5309305,16.2997184 C40.6705759,15.4386649 39.7501578,14.6415935 38.7768254,13.9146952 C38.3381184,13.5933967 37.8262935,13.2226677 37.2779097,12.8519387 L35.7302489,11.8386128 C29.6370959,8.0324617 18.4135082,3.18826941 1.08458122,2.96583201 C0.621501601,5.35497447 0.259974526,7.77707061 0,10.2321204 C7.99111093,10.1238271 15.9403372,11.4199397 23.4951978,14.0629868 C25.7623234,14.8794524 27.9660653,15.8666966 30.0879893,17.0164612 C32.3753608,18.1923266 34.4981776,19.6717619 36.4004957,21.4157787 L48.0993494,33.2914643 L48.0993494,33.2914643 L48.0993494,33.2914643 C51.0705962,36.3061968 55.1014856,38 59.3046576,38 C63.5078297,38 67.5387191,36.3061968 70.5099659,33.2914643 L76.0547351,27.6687411 L77.12713,26.5812694 L78.4066921,25.3455061 L79.6253227,24.1097427 L82.1722607,21.5269974 L83.2080967,20.4765985 L84.7191986,18.944252 L84.7191986,18.944252 L85.9987607,17.7084886 L87.2173913,16.4109371 L93.8833006,9.65131167 C94.449973,9.08829752 95.0895215,8.60604987 95.7843643,8.2178262 C96.4570905,7.84982909 97.1738949,7.57153713 97.9169679,7.38986476 C98.0487146,7.34132764 98.1829613,7.3000749 98.319116,7.26628843 C98.5506558,7.26628843 98.7943819,7.26628843 99.038108,7.26628843 C99.3405687,7.21502844 99.6457629,7.18201672 99.952081,7.16742736 L99.952081,7.16742736 C100.122689,7.16742736 100.281111,7.16742736 100.45172,7.16742736 C102.540149,7.27277755 104.517678,8.15230875 106.008675,9.63895404 L112.735516,16.4356524 L112.735516,16.4356524 L115.233709,13.9641257 C116.094578,13.0723813 117.019188,12.2462945 118,11.492599 L111.102551,4.49817855 C108.543521,1.997932 105.2118,0.470158585 101.67035,0.173006867 L101.67035,0.173006867 Z" id="Path"></path>
                <path d="M135.499605,14.9976134 L135.499605,14.9976134 C143.058672,12.3816207 151.0091,11.102662 159,11.2171838 C158.748485,8.76235936 158.38744,6.35663144 157.916864,4 C140.611032,4.23320832 129.426743,9.04466417 123.34171,12.8128196 C122.781887,13.1564951 122.270744,13.4878964 121.796112,13.8192976 C121.321479,14.1506989 120.737316,14.5434708 120.299194,14.8748721 C119.343416,15.5802671 118.440394,16.3556298 117.59744,17.1946812 L117.59744,17.1946812 L115.066066,19.7354245 L113.84906,21.0242073 L112.571203,22.2516195 L105.987198,28.8919195 L105.914177,28.8919195 C105.097421,29.7166575 104.124911,30.3677583 103.054212,30.8066826 C102.576905,30.9965239 102.084209,31.1443645 101.581634,31.248551 C101.541373,31.2414437 101.500194,31.2414437 101.459934,31.248551 C101.125214,31.2994929 100.788023,31.3322711 100.449818,31.3467439 C100.230757,31.3467439 100.023866,31.4081146 99.8048048,31.4081146 L99.8048048,31.4081146 C99.4336535,31.3956761 99.0637057,31.358775 98.6973289,31.2976475 C98.5147779,31.2976475 98.332227,31.2976475 98.149676,31.2976475 C97.967125,31.2976475 97.6385333,31.1380839 97.3707918,31.0644391 C97.1030504,30.9907944 96.8231389,30.9294238 96.5553975,30.8189567 L96.2633159,30.6593931 C95.8408096,30.4810258 95.4337386,30.267539 95.0463095,30.0211388 C94.560493,29.694806 94.1079836,29.3206579 93.6954323,28.9041937 L87.0870871,22.2393454 L87.0870871,22.2393454 L85.5779991,23.7613365 L84.5435435,24.8046369 L82,27.3699284 L82,27.3699284 L83.0344555,28.4132288 L88.6083452,34.0347767 C91.576124,37.032894 95.6042506,38.7176365 99.8048048,38.7176365 C104.005359,38.7176365 108.033486,37.032894 111.001264,34.0347767 L111.001264,34.0347767 L111.001264,34.0347767 L122.769717,22.1657006 C124.617476,20.4400926 126.694086,18.9818856 128.93994,17.8329356 C133.371712,29.3586641 143.40657,37.7468741 155.458511,40 L156.894579,32.8932833 C147.158486,31.0950242 139.052621,24.3149321 135.499605,14.9976134 L135.499605,14.9976134 Z" id="Path"></path>
                <path d="M69.4902764,4.73775655 C67.8186408,3.02854566 65.7951727,1.72963742 63.5701126,0.937474493 C62.361315,0.491964025 61.1025014,0.206767476 59.8239509,0.088744833 C59.2650087,0.0279432723 58.7032888,-0.00165764701 58.1412487,7.15849626e-05 L58.0061412,7.15849626e-05 C57.4019894,0.0234960187 56.7993753,0.0784593678 56.2006141,0.164750474 C52.69049,0.556746144 49.4128633,2.16433139 46.9027636,4.72508895 L40,11.844284 C40.9803419,12.6271899 41.9115844,13.4733933 42.7881269,14.3778054 L45.3306039,17 L45.3306039,17 L52.0368475,10.070819 C53.1479535,8.94062348 54.5363671,8.14363803 56.0532242,7.76531459 L56.5322416,7.61330331 C56.7778915,7.61330331 57.0235415,7.61330331 57.2691914,7.53729767 C57.5148414,7.46129203 57.8833163,7.44862442 58.2026612,7.44862442 L58.2026612,7.44862442 C58.3746162,7.44862442 58.5342886,7.44862442 58.7062436,7.44862442 C60.8283467,7.54432506 62.8409839,8.44682162 64.3561924,9.9821458 L71.0255885,16.8606563 L71.0255885,16.8606563 L72.4626407,15.3785463 L73.5435005,14.2637969 L73.5435005,14.2637969 L74.7717503,12.9970362 L76,11.7302755 L74.9191402,10.6281937 L69.4902764,4.73775655 Z" id="Path"></path>
            </g>
        </g>
    </g>
</svg>