<?xml version="1.0" encoding="UTF-8"?>
<svg width="39px" height="27px" viewBox="0 0 39 27" version="1.1" xmlns="http://www.w3.org/2000/svg" xmlns:xlink="http://www.w3.org/1999/xlink">
    <!-- Generator: Sketch 53.1 (72631) - https://sketchapp.com -->
    <title>black-envelope</title>
    <desc>Created with Sketch.</desc>
    <g id="Page-1" stroke="none" stroke-width="1" fill="none" fill-rule="evenodd">
        <g id="Desktop-HD-Copy-2" transform="translate(-880.000000, -5811.000000)" fill="#2568B2" fill-rule="nonzero">
            <g id="black-envelope" transform="translate(880.000000, 5811.000000)">
                <path d="M2.69598491,1.5610464 L16.6481984,12.3311825 C17.280873,12.8190095 18.1527125,13.0358215 18.9995232,12.9951692 C19.8449433,13.0358215 20.7167828,12.8203645 21.3494575,12.3311825 L35.3016709,1.5610464 C36.4196278,0.703283923 36.166558,0 34.7482544,0 L19.0009137,0 L3.25357287,0 C1.83387884,1.20354837e-15 1.58080899,0.703283923 2.69598491,1.5610464 Z" id="Path"></path>
                <path d="M36.9279894,4.43150828 L21.5769107,15.9928087 C21.0029077,16.4205421 20.2511039,16.6288538 19.5021,16.6191326 C18.7516962,16.6288538 17.9998923,16.4191534 17.4258894,15.9928087 L2.07201063,4.43150828 C0.932404782,3.57465273 0,4.03432726 0,5.4522357 L0,24.4211009 C0,25.8390093 1.170406,27 2.59981333,27 L19.4993,27 L36.4001867,27 C37.829594,27 39,25.8390093 39,24.4211009 L39,5.4522357 C39,4.03432726 38.0675952,3.57465273 36.9279894,4.43150828 Z" id="Path"></path>
            </g>
        </g>
    </g>
</svg>