<?xml version="1.0" encoding="UTF-8"?>
<svg width="28px" height="28px" viewBox="0 0 28 28" version="1.1" xmlns="http://www.w3.org/2000/svg" xmlns:xlink="http://www.w3.org/1999/xlink">
    <!-- Generator: Sketch 53.1 (72631) - https://sketchapp.com -->
    <title>call-answer</title>
    <desc>Created with Sketch.</desc>
    <g id="Page-1" stroke="none" stroke-width="1" fill="none" fill-rule="evenodd">
        <g id="Desktop-HD-Copy-2" transform="translate(-634.000000, -5810.000000)" fill="#2568B2" fill-rule="nonzero">
            <g id="call-answer" transform="translate(634.000000, 5810.000000)">
                <path d="M27.3722911,22.1466507 L23.0481279,17.8122059 C22.1868347,16.952428 20.7605164,16.9785503 19.8692183,17.8721904 L17.6906863,20.0551749 C17.5530499,19.9791461 17.410587,19.8997312 17.2608039,19.8154787 C15.8850836,19.0514825 14.0021762,18.0043337 12.0208077,16.0170245 C10.0335669,14.0255228 8.98782001,12.1354465 8.22321817,10.7557223 C8.14253478,10.6095504 8.06522996,10.468619 7.98889044,10.3347827 L9.45100543,8.87153161 L10.1698357,8.15018569 C11.0625013,7.25525558 11.0871166,5.82610864 10.2278345,4.96383138 L5.9036712,0.628902806 C5.04438905,-0.232165084 3.61742724,-0.206042799 2.72476163,0.68888731 L1.50606433,1.91736029 L1.53936735,1.95049689 C1.13072165,2.47310383 0.789245083,3.07585135 0.535128596,3.72584473 C0.3008813,4.34455587 0.155039834,4.93496787 0.0883533616,5.52658924 C-0.482624423,10.2708476 1.68046273,14.6067436 7.55080294,20.4904657 C15.6653964,28.622881 22.2046928,28.0085236 22.4868031,27.9785313 C23.1012196,27.9049213 23.6900555,27.7577819 24.2884641,27.5248582 C24.9313571,27.273149 25.5323397,26.9313825 26.0534434,26.5226977 L26.0800698,26.5464013 L27.3146946,25.3346982 C28.20551,24.4399293 28.2311711,23.0102986 27.3722911,22.1466507 Z" id="Path"></path>
            </g>
        </g>
    </g>
</svg>