<?xml version="1.0" encoding="UTF-8"?>
<svg width="400px" height="217px" viewBox="0 0 400 217" version="1.1" xmlns="http://www.w3.org/2000/svg" xmlns:xlink="http://www.w3.org/1999/xlink">
    <!-- Generator: Sketch 53.1 (72631) - https://sketchapp.com -->
    <title>shutterstock_1138201901</title>
    <desc>Created with Sketch.</desc>
    <g id="Page-1" stroke="none" stroke-width="1" fill="none" fill-rule="evenodd">
        <g id="Desktop-HD-Copy-2" transform="translate(-117.000000, -5480.000000)">
            <g id="shutterstock_1138201901" transform="translate(117.000000, 5480.000000)">
                <path d="M221.071898,182.202693 C180.287971,200.803165 162.718458,181.406498 163.34705,161.447234 C164.774701,116.063222 307.139338,27.0507521 325.731645,22.1282515 C344.32484,17.2057509 371.152773,17.8940629 380.927918,41.2574402 C390.711941,64.6208175 261.856713,163.601329 221.071898,182.202693 Z M396.23432,47.8169107 C366.482722,-8.3990983 320.528001,5.56596728 278.124649,32.6945538 C243.470386,54.8658674 167.641544,102.486893 158.759569,144.676316 C149.875818,186.865739 175.134934,220.243521 223.140571,216.748465 C271.146208,213.25341 425.985918,104.032028 396.23432,47.8169107 L396.23432,47.8169107 Z" id="Fill-4" fill="#CE9616"></path>
                <path d="M369.154477,17 C377.473736,26.6528361 380.927516,41.589948 380.927516,41.589948 C390.711745,64.9091069 261.853799,163.702284 221.068123,182.268443 C197.550458,192.97315 181.753633,191.067857 172.711655,183.716324 L172.710768,183.715434 C172.681468,183.691406 172.651281,183.668269 172.621982,183.644241 C159.611265,173.834781 157.855076,150.006595 157.846197,149.890906 C151.963229,189.563022 177.077269,220.096668 223.136839,216.748832 C271.143489,213.260391 425.986467,104.245726 396.234241,48.1370039 C388.25237,33.0761947 379.098522,23.0682852 369.154477,17" id="Fill-5" fill="#FBC02B"></path>
                <path d="M249.985924,68.1269542 C264.715316,77.6619427 273.102108,87.573324 271.3071,96.9076879 C262.596369,142.19733 36.0969205,75.3858315 18.0703015,56.7401842 C9.05699197,47.4173606 9.86594718,36.0865169 15.995852,29.3203236 C40.4567352,2.32035396 172.483743,27.2856719 236.583431,60.4215544 C241.893702,56.7046755 247.117648,53.1671157 252.136018,49.8399454 C200.664574,10.7306026 111.537111,-12.7992739 41.8058839,7.37680068 C-4.67032827,20.8239662 -11.6171977,77.2242973 17.0922577,97.589456 C45.8017132,117.954615 180.213759,152.209023 231.88633,146.331436 C280.499287,140.801835 285.898551,85.3558022 262.840213,59.1956146 C258.60321,62.0727115 254.303021,65.0572224 249.985924,68.1269542" id="Fill-6" fill="#9F7A54"></path>
                <path d="M267.94653,65.8556929 C277.803751,89.3949901 269.797651,100.746921 269.797651,100.746921 L269.794981,100.74603 C248.183139,137.890347 35.5124273,74.4668263 18.0673879,56.3449288 C9.70619282,47.6589004 9.80052882,37.2413727 14.7496087,30.3537143 C16.0124651,26.1551403 17.6517755,22.1705519 19.1068637,19 C-6.02032954,40.9879023 -6.02388938,80.9060068 17.0893194,97.373083 C45.7995005,117.827423 180.214944,152.231834 231.88882,146.328509 C276.500847,141.232087 284.716088,93.9163255 267.94653,65.8556929" id="Fill-7" fill="#C2986B"></path>
                <path d="M35.757287,78.3021504 C36.7904796,75.7243002 42.6006158,77.5522637 44.1935292,78.8466892 C48.1322391,82.0442503 44.516065,80.2392051 43.7515025,81.6243871 C42.5521006,83.7970418 36.629661,75.4437802 37.8218754,83.7402044 C37.8605078,84.015224 42.6266702,86.3088874 42.1927293,86.7773374 C40.7013382,88.3889522 37.6412913,86.5527381 37.2109441,86.9826854 C36.5389197,87.6546499 35.337721,91.6818534 34.3701137,92.5142461 C26.5250374,99.2678104 34.6908526,80.9597564 35.757287,78.3021504" id="Fill-8" fill="#FFFFFE"></path>
                <path d="M51.7387738,85.9034081 C50.2537315,85.3302706 49.1307667,91.1525204 49.4954679,91.2928806 C51.5454909,92.0828567 54.1718642,86.8409424 51.7387738,85.9034081 Z M51.6976684,94.5526567 C51.9959012,95.1968741 55.6551572,102.62067 51.3906897,100.676321 C49.2628288,99.706396 49.4666067,95.4775945 48.1092536,94.9539429 C47.835509,94.8486728 45.6892819,102.72684 43.0908953,98.224516 C42.2819059,96.8218135 47.1253475,84.3405511 47.6378533,83.9428638 C50.0779403,82.0507001 54.1377554,83.1249956 55.5860652,86.1067505 C57.6369627,90.328354 51.383693,93.8751487 51.6976684,94.5526567 L51.6976684,94.5526567 Z" id="Fill-9" fill="#FFFFFE"></path>
                <path d="M63.1519494,91.9922334 C66.2389853,93.1108917 62.4019574,105.053349 59.2847493,103.924886 C55.7830626,102.656479 60.2373253,90.935079 63.1519494,91.9922334 Z M63.9657338,88.6433893 C60.0140519,87.2082978 64.9019307,85.8873005 64.8605518,86.0076343 C64.9019307,85.8864091 67.9174157,90.0784809 63.9657338,88.6433893 L63.9657338,88.6433893 Z" id="Fill-10" fill="#FFFFFE"></path>
                <path d="M65.0260359,104.483175 C65.6025273,102.137381 68.0906815,92.2538244 70.4036879,91.1351276 C71.6570065,90.5280828 77.8171025,92.076047 77.978168,93.5919246 C78.3416656,97.0295325 74.0633078,93.2094863 72.7967871,94.3099718 C67.8565644,98.6035129 75.0508242,97.6747344 74.26662,100.043943 C73.1919697,103.294235 69.2718286,98.3424836 69.1802941,103.676673 C69.1538899,105.20816 73.042346,105.487401 72.9455307,105.857698 C72.6172386,107.110812 74.5156994,107.746475 71.6367633,107.99623 C70.5462705,108.090756 64.5578017,106.393632 65.0260359,104.483175" id="Fill-11" fill="#FFFFFE"></path>
                <path d="M86.1342881,113.162093 C84.2276829,110.49231 87.1544735,103.605111 84.744018,101.485903 C84.4675692,101.398249 81.6201462,109.692471 80.2575209,110.251263 C75.351,112.265469 79.9364836,102.585225 80.1665603,102.072086 C81.1796116,99.803136 82.0437371,95.828593 84.9749866,96.0057263 C89.3259345,96.266861 87.5691468,104.170294 89.2545929,106.049368 C89.8957759,106.080412 93.0678033,92.3544059 95.8973909,99.0872982 C96.9594895,101.613731 89.5033969,117.825995 86.1342881,113.162093" id="Fill-12" fill="#FFFFFE"></path>
                <path d="M100.902107,113.952639 C104.732089,113.533423 107.197355,105.600433 103.261706,103.852398 C100.42571,104.261199 100.5466,114.018602 100.902107,113.952639 Z M103.406774,101.119249 C116.210396,104.524185 103.976301,122.531377 96.9977993,115.304892 C94.1152383,112.320908 97.8538815,99.6420118 103.406774,101.119249 L103.406774,101.119249 Z" id="Fill-13" fill="#FFFFFE"></path>
                <path d="M122.444701,106.055991 C120.227363,108.240248 119.361633,106.569508 117.995274,110.216566 C116.88891,113.165674 119.714748,116.55778 118.774338,119.547572 C117.147983,124.718003 110.867524,125.686273 111.002131,120.853967 C110.998443,120.985058 114.17463,121.354827 114.524057,120.36486 C115.617513,117.268387 113.522797,114.029974 113.841799,110.952487 C114.123922,108.231207 114.143283,105.583158 116.969121,104.236983 C117.596061,103.938637 125.06494,103.47394 122.444701,106.055991" id="Fill-14" fill="#FFFFFE"></path>
                <path d="M137.320251,109.885806 C137.898654,107.175066 144.031002,107.905724 145.86154,108.886631 C150.371428,111.301455 146.428026,110.196335 145.909205,111.689616 C145.093392,114.04416 137.674993,106.914769 140.348843,114.84149 C140.437757,115.104527 145.614046,116.48273 145.261138,117.022503 C144.054835,118.86924 140.662335,117.635342 140.310344,118.129449 C139.755774,118.908513 139.267203,123.076001 138.44589,124.066955 C131.784638,132.098709 136.725349,112.683311 137.320251,109.885806" id="Fill-15" fill="#FFFFFE"></path>
                <path d="M157.0371,116.622092 C153.282316,114.478541 150.631027,119.277859 152.031931,122.580208 C155.051354,129.695319 161.410277,119.171448 157.0371,116.622092 Z M155.344229,113.109626 C165.6012,114.94206 163.236439,129.790007 153.478171,127.820501 C145.030133,126.117022 146.900725,111.601836 155.344229,113.109626 L155.344229,113.109626 Z" id="Fill-16" fill="#FFFFFE"></path>
                <path d="M171.653508,118.266486 C169.147472,117.889945 168.540527,122.98096 169.877262,123.185109 C171.013805,123.358408 174.458922,118.688393 171.653508,118.266486 Z M174.365196,132.936157 C172.210405,132.62948 171.059303,129.879371 169.251208,129.605358 C169.256667,129.606265 168.749818,134.151976 166.77793,132.570504 C164.143589,130.457338 165.210975,129.318642 165.228264,125.793675 C165.252833,120.742583 165.843399,112.293549 173.28962,115.848458 C183.015297,120.493068 170.490576,123.672343 170.976496,126.595753 C170.970126,126.560367 180.06338,133.747308 174.365196,132.936157 L174.365196,132.936157 Z" id="Fill-17" fill="#FFFFFE"></path>
                <path d="M180.000878,131.710844 C180.108464,129.276825 180.623793,119.003848 182.728506,117.45007 C183.87127,116.607491 190.387923,116.956084 190.855335,118.427531 C191.915828,121.762811 186.833056,118.8024 185.778892,120.13546 C181.666205,125.339828 188.728021,123.036313 188.415207,125.535145 C187.987574,128.962391 183.041319,124.809932 184.023157,130.113273 C184.304328,131.634644 188.27869,131.164306 188.255184,131.549685 C188.178336,132.854718 190.217954,133.119229 187.367371,133.920642 C186.287892,134.22369 179.914086,133.694669 180.000878,131.710844" id="Fill-18" fill="#FFFFFE"></path>
                <path d="M204.422778,121.679626 C210.210302,118.972036 204.569331,129.605257 203.674218,130.521162 C199.088954,135.217574 198.013063,132.714973 196.219325,127.402724 C195.731401,125.958211 192.997794,117.654878 197.777876,120.644217 C199.328529,121.613332 198.952932,128.20872 200.561504,128.370094 C201.841867,128.498321 203.006393,122.36263 204.422778,121.679626" id="Fill-19" fill="#FFFFFE"></path>
                <path d="M218.565726,135.495844 C217.630812,136.94454 213.49901,137.383884 212.067206,136.651644 C209.172434,135.170502 210.116005,131.810091 210.264899,129.005656 C210.472657,125.089268 210.349733,121.237774 214.270314,120.121437 C215.296989,119.828541 220.124782,119.947804 219.99753,121.820935 C219.812279,124.543815 214.089391,121.151834 214.340433,126.230159 C214.37679,126.961522 218.258416,127.158832 218.583905,128.903931 C219.118018,131.772383 210.826713,125.488273 213.917124,133.312279 C213.975989,133.463111 219.965501,133.440311 218.565726,135.495844" id="Fill-20" fill="#FFFFFE"></path>
                <path d="M228.961521,124.111882 C226.389559,123.97831 226.274079,129.078402 227.645053,129.151505 C228.812783,129.213778 231.845739,124.262602 228.961521,124.111882 Z M233.152045,138.37878 C230.938532,138.279504 229.501965,135.666734 227.641358,135.567458 C227.641358,135.567458 227.582232,140.118822 225.427845,138.739785 C222.552865,136.896857 223.520122,135.674857 223.191236,132.177625 C222.720079,127.161468 222.498358,118.747355 230.381458,121.562288 C240.688705,125.244534 228.315759,129.571173 229.092706,132.423108 C229.084391,132.387911 239.004551,138.638704 233.152045,138.37878 L233.152045,138.37878 Z" id="Fill-21" fill="#FFFFFE"></path>
                <path d="M220.212964,197.2987 C218.888108,194.968134 224.096323,191.727464 226.138887,191.317263 C231.187714,190.304391 227.428733,191.918194 228.003636,193.327333 C228.90745,195.537712 218.565646,194.919363 225.776809,199.041398 C226.01543,199.177261 230.903027,196.999976 230.984103,197.607003 C231.260498,199.697196 227.840563,200.875543 227.892157,201.457313 C227.975075,202.365676 230.314304,205.697792 230.329045,206.925781 C230.448816,216.874229 221.57928,199.702422 220.212964,197.2987" id="Fill-22" fill="#FFFFFE"></path>
                <path d="M236.0411,189.086642 C234.679654,189.908903 238.297755,194.548094 238.632266,194.347298 C240.511079,193.210669 238.27089,187.738314 236.0411,189.086642 Z M242.443622,194.676203 C243.110046,194.849741 250.93381,196.685065 246.800942,198.855654 C244.738408,199.937769 241.724335,197.05849 240.479015,197.809883 C240.228564,197.960706 244.730608,204.743229 239.746728,203.932779 C238.193761,203.680194 231.972361,191.78057 232.000092,191.114584 C232.131817,187.941835 235.489068,185.378742 238.617534,186.13286 C243.04765,187.200437 241.742533,194.491762 242.443622,194.676203 L242.443622,194.676203 Z" id="Fill-23" fill="#FFFFFE"></path>
                <path d="M247.349005,184.156675 C250.347201,182.416612 257.278049,193.005758 254.251228,194.762646 C250.852287,196.736489 244.517939,185.798444 247.349005,184.156675 Z M245.227091,181.395598 C241.3877,183.620045 243.662895,178.911692 243.730301,179.020612 C243.661971,178.911692 249.067405,179.16938 245.227091,181.395598 L245.227091,181.395598 Z" id="Fill-24" fill="#FFFFFE"></path>
                <path d="M258.210656,190.580612 C256.711413,188.573096 250.435408,180.063935 251.041027,177.494314 C251.371201,176.099429 256.601056,172.252216 257.914576,173.128305 C260.895117,175.115972 255.071308,175.972211 255.127832,177.701833 C255.352135,184.450695 259.275648,178.145742 260.65915,180.334611 C262.555859,183.335509 256.061831,183.158667 260.260788,186.762271 C261.465745,187.796255 264.21032,184.905432 264.442698,185.226634 C265.230451,186.315655 266.968353,185.235657 265.301331,187.678059 C264.669693,188.60287 259.431763,192.216399 258.210656,190.580612" id="Fill-25" fill="#FFFFFE"></path>
                <path d="M277.994799,179.752779 C274.866791,179.56378 271.638437,172.933431 268.602124,173.484152 C268.367696,173.646022 272.673033,181.099286 272.241375,182.517233 C270.686021,187.624735 266.439508,177.938747 266.20508,177.435051 C265.172214,175.213179 262.801122,172.032746 264.737961,169.850663 C267.614241,166.61145 272.307983,172.965082 274.721463,172.830341 C275.139281,172.348347 267.063206,161.219092 273.730985,163.246539 C276.232699,164.007058 283.483519,180.05572 277.994799,179.752779" id="Fill-26" fill="#FFFFFE"></path>
                <path d="M289.262975,168.075252 C291.401471,164.827554 286.576428,157.68226 282.616251,159.580651 C281.112294,162.049729 289.087271,168.393901 289.262975,168.075252 Z M280.497783,157.665158 C291.534387,149.980681 298.195678,171.349953 287.83367,171.995352 C283.554858,172.261793 275.710976,160.997468 280.497783,157.665158 L280.497783,157.665158 Z" id="Fill-27" fill="#FFFFFE"></path>
                <path d="M295.87488,147.152085 C296.17208,150.189636 294.377351,149.785763 296.301605,153.108084 C297.858575,155.794597 302.155989,155.815194 303.844258,158.404097 C306.763022,162.881618 303.651744,168.197332 300.075593,165.051425 C300.173181,165.137394 302.397297,162.989974 301.860564,162.103425 C300.186489,159.33363 296.451536,158.862595 294.317911,156.684728 C292.43003,154.758499 290.436576,153.074951 291.147193,150.10904 C291.305108,149.45174 295.525339,143.561113 295.87488,147.152085" id="Fill-28" fill="#FFFFFE"></path>
                <path d="M308.380831,138.750184 C306.693805,136.632114 311.048084,132.483371 312.921863,131.718191 C317.542421,129.832885 314.262191,132.107024 315.069069,133.423349 C316.338806,135.498612 306.358723,136.639248 313.998593,139.555497 C314.252362,139.651813 318.503883,136.623196 318.692422,137.222498 C319.337567,139.275465 316.302171,141.055536 316.457649,141.626301 C316.702482,142.527038 319.544871,145.481634 319.783449,146.714128 C321.716203,156.703394 310.122364,140.936033 308.380831,138.750184" id="Fill-29" fill="#FFFFFE"></path>
                <path d="M326.872266,126.92746 C322.854909,128.408798 324.873925,133.377707 328.297084,134.379943 C335.673776,136.537658 331.589897,125.233874 326.872266,126.92746 Z M323.102117,126.014174 C330.980416,119.465289 340.909196,130.461709 333.240349,136.55175 C326.601686,141.8245 316.617172,131.404058 323.102117,126.014174 L323.102117,126.014174 Z" id="Fill-30" fill="#FFFFFE"></path>
                <path d="M337.266197,116.869615 C335.420789,118.573432 338.899633,122.312492 339.886463,121.406109 C340.724556,120.63431 339.333375,114.962548 337.266197,116.869615 Z M350.066489,124.180191 C348.491836,125.656954 345.692552,124.784446 344.359262,126.012183 C344.362825,126.009437 347.490756,129.320024 345.06554,129.835473 C341.824498,130.524873 341.625885,128.965711 338.968212,126.689682 C335.157159,123.427618 329.125738,117.545282 336.454823,114.047925 C346.027433,109.478471 340.638164,121.242227 343.153334,122.741879 C343.123052,122.723569 354.228455,120.278165 350.066489,124.180191 L350.066489,124.180191 Z" id="Fill-31" fill="#FFFFFE"></path>
                <path d="M352.332982,118.752014 C350.517959,117.110368 342.901877,110.132267 343.000958,107.549257 C343.054444,106.148692 347.343861,101.460419 348.768698,102.051199 C351.99979,103.391715 346.576641,105.323012 346.957182,106.972606 C348.439889,113.410261 351.016871,106.610543 352.753857,108.449116 C355.137061,110.97031 348.877424,112.035305 353.579824,114.696026 C354.928378,115.459891 357.017846,112.163352 357.30106,112.427393 C358.260304,113.322836 359.724598,111.954945 358.583852,114.617432 C358.151578,115.62591 353.811305,120.089881 352.332982,118.752014" id="Fill-32" fill="#FFFFFE"></path>
                <path d="M360.167959,93.8213049 C361.826699,87.7574168 366.718186,98.6737891 366.874758,99.9229689 C367.639196,106.323406 364.876165,105.569605 359.354706,103.598391 C357.851617,103.061802 349.263193,99.9264031 354.888726,98.1887124 C356.713248,97.6255082 361.835909,102.038418 363.041512,100.924888 C364.001205,100.039731 359.780213,95.3186036 360.167959,93.8213049" id="Fill-33" fill="#FFFFFE"></path>
                <path d="M379.92713,91.9401978 C380.438597,93.5680583 378.14133,97.0259659 376.667611,97.6696793 C373.694167,98.9700668 371.734989,96.1377277 369.689121,94.2644785 C366.837042,91.6498787 363.820253,89.3316463 365.467351,85.6110691 C365.892128,84.6381546 369.056289,80.9944774 370.408642,82.2663514 C372.367821,84.1154074 366.134858,86.3973499 370.165912,89.3860811 C370.74673,89.8172395 373.373417,86.9503386 374.907818,87.7945105 C377.439146,89.1813025 367.365847,91.6282776 375.29792,94.1521526 C375.453961,94.2005391 379.250953,89.5735789 379.92713,91.9401978" id="Fill-34" fill="#FFFFFE"></path>
                <path d="M378.051862,75.9953451 C376.411322,77.8062583 380.146167,81.0629029 381.027521,80.0970237 C381.769254,79.2758059 379.901831,73.9639116 378.051862,75.9953451 Z M391.211081,81.7782709 C389.814878,83.3466116 386.996291,82.7803154 385.809518,84.0893242 C385.809518,84.0893242 389.169133,86.9640275 386.847945,87.6917447 C383.741392,88.6646805 383.409793,87.1924866 380.599933,85.2598462 C376.577121,82.4883464 370.172037,77.4207887 377.004709,73.3632141 C385.949139,68.0583765 381.743075,79.8641542 384.334778,81.064667 C384.299873,81.0496716 394.928474,77.6280778 391.211081,81.7782709 L391.211081,81.7782709 Z" id="Fill-35" fill="#FFFFFE"></path>
            </g>
        </g>
    </g>
</svg>