<?xml version="1.0" encoding="UTF-8"?>
<svg width="436px" height="107px" viewBox="0 0 436 107" version="1.1" xmlns="http://www.w3.org/2000/svg" xmlns:xlink="http://www.w3.org/1999/xlink">
    <!-- Generator: Sketch 53.1 (72631) - https://sketchapp.com -->
    <title>Group 2 Copy</title>
    <desc>Created with Sketch.</desc>
    <g id="Page-1" stroke="none" stroke-width="1" fill="none" fill-rule="evenodd" opacity="0.102678571">
        <g id="Desktop-HD-Copy-2" transform="translate(0.000000, -2242.000000)" fill="#2568B2" fill-rule="nonzero">
            <g id="Group-2-Copy" transform="translate(0.000000, 2242.000000)">
                <path d="M5,87.6905346 L8.95904139,107 C42.1273963,100.92565 69.765408,78.2110795 82,46.9705738 C76.1579431,43.8676915 70.0906261,41.2034046 63.8488017,39 C54.0204756,64.2516564 31.765789,82.6648195 5,87.6905346 L5,87.6905346 Z" id="Path"></path>
                <path d="M278.301043,0.468939667 C276.675446,0.229729754 275.038842,0.0732166765 273.397501,0 L273.063926,0 C271.503606,0.00579098884 269.944707,0.095240171 268.393886,0.267965524 C264.978085,0.594637485 261.616309,1.34854616 258.386657,2.51217679 C252.414282,4.63163581 246.989283,8.06492416 242.50852,12.5608839 L227.06403,28.0358929 L224.228648,30.8830266 L220.892905,34.2325957 L217.390375,37.5821647 L214.054632,40.9317338 L210.718889,44.2813028 L210.718889,44.2813028 L210.718889,44.2813028 L207.783435,47.2289236 L203.880616,51.1479194 L203.880616,51.1479194 L200.544872,54.4974884 L197.042342,57.8470575 L178.929257,76.0352174 C177.097062,77.8626879 174.964166,79.358504 172.624703,80.4566486 C172.138519,80.7504922 171.637484,81.0188182 171.123619,81.2605451 L170.289683,81.495015 C169.130732,81.9485589 167.937075,82.3070202 166.720438,82.5668771 C166.064859,82.6014178 165.407928,82.6014178 164.752349,82.5668771 C163.912993,82.7040585 163.06659,82.7935229 162.217185,82.8348426 L162.217185,82.8348426 C161.349892,82.8348426 160.515956,82.6673641 159.648663,82.6003727 C158.781369,82.5333814 158.347723,82.6003727 157.680574,82.3993986 C156.473649,82.1440654 155.290702,81.7854693 154.144687,81.3275365 L153.277393,81.0930667 C152.510172,80.7581098 151.776309,80.2891701 151.042446,79.8872218 C150.037447,79.3598488 149.067999,78.7668173 148.140349,78.1119502 C147.190638,77.4391466 146.298055,76.6885101 145.471755,75.867739 L145.238253,75.867739 L127.258598,57.8135618 L123.922854,54.4639927 L120.587111,51.1144237 L120.587111,51.1144237 L113.682123,44.1808158 L113.682123,44.1808158 C111.327085,41.8469076 108.807635,39.6864244 106.143344,37.7161475 C104.942477,36.8452595 103.541464,35.8403888 102.04038,34.8355181 L97.8039864,32.0888715 C81.1252711,21.7721988 50.4030776,8.64188815 2.96881132,8.03896572 C1.70122896,14.5147992 0.711625185,21.0799545 0,27.7344317 C21.8739731,27.4408997 43.6332958,30.9540472 64.3131261,38.1180958 C70.5189021,40.3311472 76.5511787,43.0070986 82.359496,46.1235658 C88.620691,49.3107801 94.4314522,53.3208284 99.638645,58.0480316 L131.661778,90.2373902 L131.661778,90.2373902 L131.661778,90.2373902 C139.794937,98.408902 150.828643,103 162.333936,103 C173.839229,103 184.872935,98.408902 193.006093,90.2373902 L208.183724,74.996851 L211.119178,72.0492302 L214.621708,68.6996612 L217.957451,65.3500921 L224.929154,58.3494928 L227.764536,55.5023591 L231.900857,51.3488935 L231.900857,51.3488935 L235.403387,47.9993245 L238.73913,44.482277 L256.985645,26.1601343 C258.53679,24.6340696 260.287419,23.3269246 262.189404,22.2746342 C264.03085,21.2771683 265.99295,20.5228506 268.026954,20.0304229 C268.387583,19.8988618 268.755055,19.7870451 269.12775,19.695466 C269.761541,19.695466 270.428689,19.695466 271.095838,19.695466 C271.92376,19.5565245 272.759165,19.4670453 273.597645,19.4275005 L273.597645,19.4275005 C274.064649,19.4275005 274.498296,19.4275005 274.9653,19.4275005 C280.681932,19.7130549 286.094999,22.0970474 290.176288,26.1266386 L308.58959,44.5492683 L308.58959,44.5492683 L315.427863,37.8501303 C317.784311,35.4330336 320.315234,33.1939035 323,31.1509922 L304.119694,12.1924313 C297.114892,5.41544727 287.995011,1.27437722 278.301043,0.468939667 L278.301043,0.468939667 Z" id="Path"></path>
                <path d="M371.602813,38.9379475 L371.602813,38.9379475 C392.31662,31.8166341 414.102859,28.3350243 436,28.646778 C435.310784,21.9642005 434.321427,15.4152745 433.031927,9 C385.609452,9.63484487 354.961593,22.7326969 338.287024,32.9904535 C336.752963,33.9260143 335.3523,34.8281623 334.051683,35.7303103 C332.751067,36.6324582 331.150308,37.7016706 329.949739,38.6038186 C327.330659,40.5240603 324.856143,42.63477 322.54623,44.9188544 L322.54623,44.9188544 L315.60961,51.8353222 L312.274696,55.3436754 L308.773036,58.6849642 L290.731152,76.7613365 L290.531057,76.7613365 C288.292934,79.0064564 285.628004,80.7788976 282.69401,81.973747 C281.386065,82.4905373 280.03595,82.8929924 278.658764,83.176611 C278.548439,83.1572633 278.435598,83.1572633 278.325273,83.176611 C277.408054,83.3152863 276.484064,83.4045158 275.557294,83.4439141 C274.95701,83.4439141 274.390074,83.6109785 273.78979,83.6109785 L273.78979,83.6109785 C272.772739,83.5771182 271.758986,83.4766653 270.755018,83.3102625 C270.254781,83.3102625 269.754544,83.3102625 269.254307,83.3102625 C268.75407,83.3102625 267.853643,82.875895 267.119962,82.6754177 C266.386281,82.4749403 265.619251,82.3078759 264.88557,82.0071599 L264.08519,81.5727924 C262.927413,81.087237 261.811933,80.5060785 260.750277,79.8353222 C259.419013,78.946972 258.17902,77.9284576 257.048522,76.7947494 L238.93994,58.6515513 L238.93994,58.6515513 L234.804647,62.7947494 L231.96997,65.6348449 L225,72.6181384 L225,72.6181384 L227.834677,75.4582339 L243.108582,90.7613365 C251.241067,98.922878 262.27918,103.509122 273.78979,103.509122 C285.300399,103.509122 296.338513,98.922878 304.470997,90.7613365 L304.470997,90.7613365 L304.470997,90.7613365 L336.719614,58.451074 C341.782953,53.7535855 347.473403,49.784022 353.627628,46.6563246 C365.771834,78.031919 393.269951,100.866491 426.295401,107 L430.230599,87.6539379 C403.551176,82.7586771 381.339,64.3017597 371.602813,38.9379475 L371.602813,38.9379475 Z" id="Path"></path>
                <path d="M192.279086,12.5411203 C187.728522,8.01673852 182.220192,4.57845199 176.163084,2.48155013 C172.872468,1.30225771 169.445698,0.54732567 165.9652,0.234912793 C164.443635,0.0739674855 162.914508,-0.00438788915 161.38451,0.000189489607 L161.016718,0.000189489607 C159.372082,0.0621953436 157.731633,0.207686562 156.101672,0.436104196 C146.546334,1.47373979 137.623906,5.72911251 130.790856,12.5075884 L112,31.3525165 C114.668709,33.4249144 117.203757,35.6648647 119.589901,38.0588966 L126.511088,45 L126.511088,45 L144.766974,26.6580504 C147.791651,23.6663563 151.571221,21.5566889 155.700444,20.5552445 L157.004435,20.1528617 C157.673149,20.1528617 158.341863,20.1528617 159.010577,19.9516703 C159.67929,19.7504789 160.682361,19.716947 161.551689,19.716947 L161.551689,19.716947 C162.019788,19.716947 162.454452,19.716947 162.922552,19.716947 C168.699388,19.9702722 174.178234,22.3592337 178.302968,26.4233271 L196.458547,44.6311491 L196.458547,44.6311491 L200.370522,40.7079167 L203.312863,37.7571095 L203.312863,37.7571095 L206.656431,34.4039194 L210,31.0507294 L207.05766,28.133454 L192.279086,12.5411203 Z" id="Path"></path>
            </g>
        </g>
    </g>
</svg>